<?xml version="1.0" encoding="UTF-8"?>
<svg id="_レイヤー_1" data-name="レイヤー 1" xmlns="http://www.w3.org/2000/svg" viewBox="0 0 512 512">
  <defs>
    <style>
      .cls-1 {
        fill: none;
      }
    </style>
  </defs>
  <path class="cls-1" d="M512,0v512H0V0h512ZM395.9,70.65c-22.92,2.15-40.79,23.32-40.42,46.12.33,20.88,19,51.4,32.76,66.74,6.27,6.99,11.08,12.64,19.76,4.75,14.13-12.84,36.46-48.46,37.99-67.51,2.32-28.92-20.96-52.82-50.09-50.09ZM420.5,369.75v-174.75c-.87-.22-1,.36-1.5.75-4.68,3.61-8.85,7.88-14.87,9.38l-.63,2.12.03,157.53-.52,1.48-97.51,34.74-1-152.25-.8-1.2-14.19-6.55-.51,159-92.71-29.97-40.66,12.35c-5.08,6.65-11.69,10.63-19.68,5.86l-36.45,13.27v-250.5l85-32c-.03,52.57,1.05,105.15.53,157.77-.01,1.42-.47,2.57-.53,3.94,13.2,17.52,13.55,39.55,5,59.28,3.85.71,7.59,2.18,10.75,4.49l.25-225.99,88.43,29.57.07,59.93c5.55.32,10.64,2.61,15.25,5.5l.98-66.52,39.81-14.8c-1.22-5.31-2.38-10.66-2.04-16.18-6.32,1.73-12.57,3.83-18.76,5.99-4.97,1.73-26.04,10.5-29.46,10-1.25-.19-2.15-1.22-3.39-1.63-32.65-10.83-65.38-21.61-98.21-31.79-4.02-.72-7.2.83-10.82,2.06-26.72,9.08-55.2,20.49-81.5,31-6.24,2.5-15.67,4.71-17.26,12.24-1.44,74.88-.19,149.95-.64,224.9,2.24,13.58-1.25,30.11.56,43.44.91,6.69,9.16,11.18,15.35,8.44l93.86-34.08c30.58,9.41,60.72,20.39,91.37,29.57,12.8,3.84,13.92,5.11,27.14.88,33.03-10.57,65.32-23.8,98.23-34.77,5.51-2.72,10.28-5.88,11.01-12.49ZM374.88,193.59c-3.39.46-9.07,7.68-11,10.55-.72,1.07-3.58,5.82-3.78,6.72-1.17,5.15,6.91,12.04,12.03,9.53,2.32-1.14,7.55-8.46,9.07-10.93,2.88-4.66,5.64-8.26.8-12.72-1.5-1.38-5.06-3.43-7.13-3.15ZM260.88,211.63c-5.43.79-5.93,4.02-5.16,8.89.24,1.49,1.33,5.1,2.58,5.92,2.1,1.39,14.98,1.41,17.96,1.06,5.03-.59,5.21-6.84,4.75-10.77-.41-3.47-3.19-4.32-6.27-4.74-3.65-.5-10.32-.89-13.87-.37ZM238.38,217.13c-3.93.55-9.48,3.95-12.62,6.38-5.52,4.27-8.2,6.97-2.75,13.23,2.52,2.9,5.65,4.07,9.36,2.38,1.2-.55,2.07-2.03,3.17-2.82,3.07-2.21,9.92-5.86,9.91-9.98,0-1.38-1.25-6.9-2.01-8-1.15-1.66-3.32-1.42-5.06-1.18ZM298.37,221.09c-6.38,1.24-10.76,10.25-5.04,14.32,3.26,2.32,14.54,6.12,18.43,6.09,2.7-.02,6.18-5.13,6.51-7.48.29-2.08-.99-6.04-2.82-7.24-1.58-1.04-13.42-5.37-15.34-5.7-.67-.11-1.07-.14-1.75,0ZM353.34,223.66c-3.42-2.86-9.36-.4-13.23.71-2.78.79-10.18,2.64-11.24,5.26-1.33,3.3.42,11.35,4.48,12.27,4.88,1.1,19.42-3.54,21.74-8.05,1.66-3.22,1.05-7.85-1.76-10.19ZM214.37,246.61c-2.73.55-3.93,2.93-4.63,5.38-1.3,4.59-2.03,21.01,4.11,22.4,3.5.8,9.22-.54,10.52-4.27,1.39-3.99,1.76-15.58.16-19.41-1.21-2.89-7.35-4.67-10.17-4.1ZM148.82,378.82c11.9-10.56,31.88-43.96,33.54-59.71,4.53-43.09-51.36-61.92-72.12-25.12-10.94,19.4-3.17,38.06,6.86,55.66,4.58,8.04,13.86,23,20.4,29.1,4.04,3.76,7.16,3.76,11.32.08ZM230.9,281.11c-1.86.18-6.14,2.24-7.4,3.64-3.71,4.12.2,9.62,2.8,13.21,1.39,1.93,5.93,7.66,7.98,8.02,3.83.67,7.45.76,9.5-2.95,2.73-4.94,1.07-7.02-1.57-11.49-2.12-3.59-6.69-10.89-11.31-10.43ZM245.38,316.13c-1.65.21-5.79,1.89-6.82,3.19-1.51,1.92-.79,4.07-1.29,6.21-.8,3.49-4.05,7.24-3.05,10.98.68,2.54,5.03,6.17,7.64,6.39,8.36.73,18.88-28.7,3.51-26.78ZM221.87,343.12c-3.62.59-16.68,6.04-18.3,9.19-2.08,4.03,2.08,12.51,7.11,12.15,3.88-.28,17.5-6.35,19.26-9.78,1.49-2.9.53-6.6-1.22-9.16-1.88-2.74-3.64-2.93-6.85-2.41ZM180.38,350.13c-10.24,1.4-11.58,16.87-1.1,19.84,14.85,4.2,18.25-22.17,1.1-19.84Z"/>
  <path d="M420.5,369.75c-.73,6.61-5.49,9.77-11.01,12.49-32.91,10.96-65.2,24.2-98.23,34.77-13.23,4.23-14.34,2.96-27.14-.88-30.64-9.18-60.79-20.16-91.37-29.57l-93.86,34.08c-6.19,2.74-14.44-1.75-15.35-8.44-1.82-13.33,1.68-29.85-.56-43.44.45-74.95-.81-150.03.64-224.9,1.59-7.53,11.02-9.75,17.26-12.24,26.3-10.52,54.78-21.92,81.5-31,3.62-1.23,6.8-2.78,10.82-2.06,32.83,10.19,65.56,20.96,98.21,31.79,1.24.41,2.14,1.44,3.39,1.63,3.41.51,24.49-8.26,29.46-10,6.18-2.16,12.44-4.26,18.76-5.99-.34,5.52.83,10.87,2.04,16.18l-39.81,14.8-.98,66.52c-4.61-2.89-9.7-5.18-15.25-5.5l-.07-59.93-88.43-29.57-.25,225.99c-3.16-2.32-6.9-3.78-10.75-4.49,8.54-19.73,8.2-41.76-5-59.28.06-1.37.51-2.52.53-3.94.52-52.62-.56-105.2-.53-157.77l-85,32v250.5l36.45-13.27c7.99,4.77,14.6.8,19.68-5.86l40.66-12.35,92.71,29.97.51-159,14.19,6.55.8,1.2,1,152.25,97.51-34.74.52-1.48-.03-157.53.63-2.12c6.02-1.49,10.19-5.76,14.87-9.38.5-.39.64-.96,1.5-.75v174.75Z"/>
  <path d="M395.9,70.65c29.14-2.73,52.41,21.18,50.09,50.09-1.53,19.05-23.86,54.67-37.99,67.51-8.68,7.89-13.49,2.24-19.76-4.75-13.77-15.33-32.43-45.85-32.76-66.74-.37-22.8,17.5-43.97,40.42-46.12ZM398.39,95.14c-25.64,2.93-22.83,44.69,5.81,41.31,24.51-2.9,21.13-44.38-5.81-41.31Z"/>
  <path d="M148.82,378.82c-4.16,3.69-7.28,3.69-11.32-.08-6.54-6.1-15.82-21.06-20.4-29.1-10.03-17.6-17.8-36.26-6.86-55.66,20.76-36.8,76.65-17.97,72.12,25.12-1.66,15.75-21.64,49.16-33.54,59.71ZM140.88,296.63c-23.18,3.17-14.43,42.16,8.96,32.96,17.87-7.03,11.43-35.74-8.96-32.96Z"/>
  <path d="M374.88,193.59c2.07-.28,5.63,1.77,7.13,3.15,4.84,4.46,2.07,8.06-.8,12.72-1.52,2.47-6.75,9.79-9.07,10.93-5.13,2.51-13.2-4.38-12.03-9.53.21-.9,3.06-5.65,3.78-6.72,1.92-2.87,7.6-10.09,11-10.55Z"/>
  <path d="M221.87,343.12c3.21-.52,4.97-.33,6.85,2.41,1.75,2.56,2.71,6.26,1.22,9.16-1.76,3.42-15.38,9.5-19.26,9.78-5.03.36-9.19-8.12-7.11-12.15,1.63-3.16,14.69-8.61,18.3-9.19Z"/>
  <path d="M353.34,223.66c2.8,2.34,3.41,6.97,1.76,10.19-2.32,4.51-16.86,9.15-21.74,8.05-4.05-.91-5.81-8.97-4.48-12.27,1.06-2.62,8.46-4.47,11.24-5.26,3.87-1.1,9.81-3.57,13.23-.71Z"/>
  <path d="M214.37,246.61c2.82-.57,8.96,1.21,10.17,4.1,1.6,3.83,1.23,15.42-.16,19.41-1.3,3.73-7.02,5.06-10.52,4.27-6.14-1.4-5.41-17.82-4.11-22.4.69-2.45,1.89-4.83,4.63-5.38Z"/>
  <path d="M298.37,221.09c.67-.13,1.08-.11,1.75,0,1.92.33,13.76,4.66,15.34,5.7,1.83,1.2,3.11,5.15,2.82,7.24-.33,2.35-3.81,7.46-6.51,7.48-3.9.03-15.17-3.77-18.43-6.09-5.72-4.07-1.34-13.08,5.04-14.32Z"/>
  <path d="M230.9,281.11c4.63-.45,9.19,6.84,11.31,10.43,2.64,4.46,4.3,6.55,1.57,11.49-2.05,3.71-5.67,3.62-9.5,2.95-2.05-.36-6.59-6.09-7.98-8.02-2.59-3.59-6.51-9.09-2.8-13.21,1.26-1.4,5.54-3.45,7.4-3.64Z"/>
  <path d="M238.38,217.13c1.74-.24,3.91-.48,5.06,1.18.76,1.1,2.01,6.62,2.01,8,.01,4.12-6.84,7.77-9.91,9.98-1.11.8-1.97,2.28-3.17,2.82-3.71,1.69-6.83.52-9.36-2.38-5.46-6.26-2.77-8.96,2.75-13.23,3.14-2.43,8.69-5.83,12.62-6.38Z"/>
  <path d="M245.38,316.13c15.37-1.92,4.86,27.51-3.51,26.78-2.61-.23-6.96-3.85-7.64-6.39-1-3.74,2.25-7.49,3.05-10.98.49-2.14-.23-4.3,1.29-6.21,1.03-1.3,5.16-2.99,6.82-3.19Z"/>
  <path d="M260.88,211.63c3.55-.52,10.21-.12,13.87.37,3.07.42,5.86,1.27,6.27,4.74.46,3.93.28,10.18-4.75,10.77-2.98.35-15.86.32-17.96-1.06-1.25-.82-2.34-4.44-2.58-5.92-.78-4.87-.28-8.1,5.16-8.89Z"/>
  <path d="M180.38,350.13c17.16-2.34,13.75,24.03-1.1,19.84-10.48-2.96-9.15-18.44,1.1-19.84Z"/>
  <path class="cls-1" d="M398.39,95.14c26.94-3.07,30.32,38.41,5.81,41.31-28.63,3.38-31.45-38.38-5.81-41.31Z"/>
  <path class="cls-1" d="M140.88,296.63c20.38-2.78,26.82,25.93,8.96,32.96-23.39,9.2-32.14-29.79-8.96-32.96Z"/>
</svg>
