<?xml version="1.0" encoding="UTF-8"?>
<svg id="_レイヤー_1" data-name="レイヤー 1" xmlns="http://www.w3.org/2000/svg" viewBox="0 0 512 512">
  <defs>
    <style>
      .cls-1 {
        fill: none;
      }
    </style>
  </defs>
  <path class="cls-1" d="M512,0v512H0V0h512ZM384.5,261v55c8.47,1.45,17.96,5.38,26.38,6.37,6.06.72,10.36-.69,12.51-6.73l35.97-158.53c2.5-13.1-8.53-13.17-17.86-15.37-49.94-11.77-100.48-21.16-150.38-33.12-4.06-.47-7.32-.08-9.84,3.4-4.98,14.22-7.36,29.49-10.79,44.22-.18.77.34.87-.99.75l-16.15-80.61c-.91-4.88-4.26-7.73-9.12-8.42l-170.24,34.77c-3.2,1.44-5.52,4.41-5.53,7.99l34.17,171.88c1.1,4.89,5.51,8.14,10.39,7.68l.47-1.04v-50.99s-23.49-119.25-23.49-119.25l143.81-29.47c2.81-.02,2.78,1.95,3.34,4.05,6.2,22.91,9.49,49.02,14.49,72.51.38,1.77,1.99,10.94,3.16,11.34l30.45-.41,11.01-46.54,142.01,31.02-23.52,105.01-1.02.5-29.25-6.02ZM142.25,177.5h94.75l-.34-1.52c-15.02-11.95-28.91-26.1-43.92-37.97-6.68-5.27-12.68-6.84-19.73-.76l-31.5,39,.75,1.24ZM386.9,171.63c-5.59.44-12.2,4.49-13.86,10.08,10.16,5.21,12.71,15.04,11.22,25.83,4.05,2.42,9.88.68,13.7-1.82,15.58-10.22,6.55-35.46-11.05-34.08ZM137.38,191.63c-7.28,1.17-10.34,6.07-10.9,13.1v209.54c.74,8.6,6.05,12.18,14.25,12.75h216.54c9.02-.68,14.03-4.91,14.25-14.25v-207.54c-.59-7.99-3.58-12.33-11.75-13.75l-222.39.15Z"/>
  <path d="M137.38,191.63l222.39-.15c8.17,1.42,11.17,5.76,11.75,13.75v207.54c-.22,9.34-5.23,13.57-14.25,14.25h-216.54c-8.2-.57-13.5-4.15-14.25-12.75v-209.54c.56-7.03,3.61-11.94,10.9-13.1ZM154.9,211.65c-3.62,1.23-8.3-1.66-8.91,3.59l.23,155.79c.49,1.51,2,2.05,3.51,1.99l199.29-.26c2.49-.77,2.81-2.09,3.01-4.49l-.12-154.41-2.48-2.02-194.52-.18Z"/>
  <path d="M384.5,261l29.25,6.02,1.02-.5,23.52-105.01-142.01-31.02-11.01,46.54-30.45.41c-1.18-.39-2.79-9.57-3.16-11.34-5.01-23.49-8.3-49.59-14.49-72.51-.57-2.1-.53-4.07-3.34-4.05l-143.81,29.47,23.48,119.25v50.99s-.46,1.04-.46,1.04c-4.88.46-9.29-2.79-10.39-7.68l-34.17-171.88c0-3.58,2.33-6.55,5.53-7.99l170.24-34.77c4.86.69,8.21,3.53,9.12,8.42l16.15,80.61c1.33.12.81.02.99-.75,3.43-14.73,5.81-30,10.79-44.22,2.52-3.49,5.78-3.87,9.84-3.4,49.9,11.95,100.44,21.35,150.38,33.12,9.33,2.2,20.35,2.27,17.86,15.37l-35.97,158.53c-2.15,6.04-6.45,7.45-12.51,6.73-8.42-.99-17.9-4.92-26.38-6.37v-55Z"/>
  <path d="M142.25,177.5l-.75-1.24,31.5-39c7.06-6.08,13.06-4.52,19.73.76,15.02,11.87,28.9,26.01,43.92,37.97l.34,1.52h-94.75Z"/>
  <path d="M386.9,171.63c17.6-1.38,26.63,23.86,11.05,34.08-3.81,2.5-9.65,4.24-13.7,1.82,1.48-10.78-1.06-20.62-11.22-25.83,1.67-5.58,8.27-9.64,13.86-10.08Z"/>
  <path class="cls-1" d="M154.9,211.65l194.52.18,2.48,2.02.12,154.41c-.2,2.41-.52,3.72-3.01,4.49l-199.29.26c-1.51.05-3.02-.49-3.51-1.99l-.23-155.79c.61-5.25,5.29-2.36,8.91-3.59ZM295.39,234.64c-9.04,1.09-17.53,8.69-20.25,17.25-7.36,23.18,19.67,43.17,39.1,27.6,20.28-16.26,6.09-47.86-18.85-44.85ZM345,366c1.2-2.54.03-4.85-.02-7.23-.19-8.43,1.6-12.33-4.22-19.28-5.09-6.07-11.58-12.09-17.01-17.99-5.02-5.45-11.37-14.28-16.74-18.76-4.63-3.86-9.53-3.3-14.01.5l-12.18,12.22c-11.14-12.52-22.78-24.58-34.08-36.96-9.13-10-16.93-26.82-31-12.51-21.01,21.36-39.74,45.32-60.73,66.77-2.92,4.02-2.08,4.51-2.49,9.01-.06.63-.52,1.32-.52,1.48v22l.75.75h192.25Z"/>
  <path d="M345,366h-192.25l-.75-.75v-22c0-.16.46-.85.52-1.48.41-4.5-.43-4.98,2.49-9.01,20.99-21.45,39.72-45.41,60.73-66.77,14.07-14.31,21.87,2.51,31,12.51,11.3,12.37,22.94,24.43,34.08,36.96l12.18-12.22c4.48-3.81,9.38-4.36,14.01-.5,5.37,4.48,11.72,13.31,16.74,18.76,5.43,5.9,11.92,11.91,17.01,17.99,5.83,6.95,4.03,10.85,4.22,19.28.05,2.38,1.22,4.69.02,7.23Z"/>
  <path d="M295.39,234.64c24.94-3.01,39.13,28.59,18.85,44.85-19.43,15.57-46.46-4.42-39.1-27.6,2.72-8.56,11.21-16.16,20.25-17.25Z"/>
</svg>
