<?xml version="1.0" encoding="UTF-8"?>
<svg id="_レイヤー_1" data-name="レイヤー 1" xmlns="http://www.w3.org/2000/svg" viewBox="0 0 512 512">
  <defs>
    <style>
      .cls-1 {
        fill: none;
      }
    </style>
  </defs>
  <path class="cls-1" d="M512,0v512H0V0h512ZM301.85,208.14c.77.92.64,1.78.45,2.87-1.51,8.65-10.39,19.19-15.21,26.32-1.15,1.71-2.36,2.92-1.71,5.01,1.47,4.77,3.52,6.34,8.4,6.17,12.13-.4,27.02-7.06,37.38-13.12,5.71-3.34,15.56-12.07,21.61-11.93,19.24.44,33.66-.31,51.99-6.96,43.08-15.63,73.9-59.04,53.33-104.85-24.91-55.47-108.85-65.35-157.42-37.75-51.82,29.45-56.24,93.05-7.82,128.49,1.75,1.28,8.23,4.81,9.01,5.73ZM149.87,89.12c-3.83.62-7.3,4.31-7.82,8.17.78,11.66-1.2,24.99-.04,36.45s17.58,11.73,18.94.45-.9-24.9.06-36.45c-.62-5.48-5.64-9.52-11.13-8.63ZM77.26,121.77c-8.11-.42-12.91,7.54-8.78,14.5,1.61,2.7,20.25,21.53,23.05,23.45,9.07,6.22,19.55-4.13,13.08-13.58-2.26-3.3-18.84-20.09-22.09-22.41-1.31-.93-3.67-1.88-5.26-1.96ZM199.71,144.21c-9.41,10.83,2.58,22.94,13.05,14.3,4.18-3.45,18.7-17.53,21.46-21.54,5.92-8.64-3.49-19.04-12.57-14.07-2.65,1.45-19.13,18.09-21.94,21.31ZM147.4,162.15c-62.49,3.64-99.19,74.15-64.51,126.72,14.43,21.87,20.82,28.93,24.12,56.38,1.7,14.15,10.83,10.83,21.22,10.74,19.79-.17,39.61.04,59.39.38,9.34-1.72,7.79-10.52,8.95-17.55,3.83-23.08,12.34-32.36,24.24-50.76,35.9-55.48-7.31-129.77-73.42-125.92ZM115.37,373.12c-12.09,2.59-10.84,18.99,1.44,20.32,5.83.63,11.73-.71,17.44.11,16.55-1.89,36.66,2.05,52.96-.09,12.01-1.58,12.28-18.14.5-20.41l-72.34.08ZM120.35,409.1c-6.25,4.74,1.14,14.13,5.38,17.91,14.55,12.94,41.32,12.07,54.52-2.51,3.31-3.65,8.71-12.34,2.48-15.49l-62.38.09Z"/>
  <path d="M301.85,208.14c-.77-.92-7.26-4.46-9.01-5.73-48.42-35.44-44-99.05,7.82-128.49,48.58-27.6,132.51-17.72,157.42,37.75,20.57,45.8-10.25,89.22-53.33,104.85-18.33,6.65-32.75,7.4-51.99,6.96-6.05-.14-15.9,8.6-21.61,11.93-10.37,6.05-25.26,12.72-37.38,13.12-4.88.16-6.92-1.41-8.4-6.17-.65-2.09.56-3.3,1.71-5.01,4.82-7.14,13.7-17.67,15.21-26.32.19-1.09.33-1.95-.45-2.87Z"/>
  <path d="M147.4,162.15c66.11-3.85,109.32,70.43,73.42,125.92-11.9,18.39-20.41,27.68-24.24,50.76-1.17,7.03.39,15.83-8.95,17.55-19.78-.35-39.59-.56-59.39-.38-10.4.09-19.52,3.41-21.22-10.74-3.3-27.44-9.69-34.51-24.12-56.38-34.68-52.56,2.02-123.08,64.51-126.72Z"/>
  <path d="M115.37,373.12l72.34-.08c11.78,2.28,11.51,18.84-.5,20.41-16.3,2.14-36.41-1.8-52.96.09-5.71-.82-11.61.52-17.44-.11-12.28-1.32-13.53-17.73-1.44-20.32Z"/>
  <path d="M120.35,409.1l62.38-.09c6.22,3.15.82,11.84-2.48,15.49-13.2,14.58-39.96,15.45-54.52,2.51-4.25-3.78-11.64-13.17-5.38-17.91Z"/>
  <path d="M149.87,89.12c5.49-.89,10.52,3.15,11.13,8.63-.95,11.54,1.3,25.16-.06,36.45s-17.74,11.41-18.94-.45.82-24.79.04-36.45c.53-3.86,3.99-7.55,7.82-8.17Z"/>
  <path d="M199.71,144.21c2.8-3.23,19.28-19.86,21.94-21.31,9.08-4.97,18.5,5.43,12.57,14.07-2.75,4.02-17.28,18.1-21.46,21.54-10.48,8.64-22.47-3.47-13.05-14.3Z"/>
  <path d="M77.26,121.77c1.6.08,3.95,1.03,5.26,1.96,3.26,2.32,19.83,19.1,22.09,22.41,6.47,9.45-4.01,19.8-13.08,13.58-2.8-1.92-21.44-20.75-23.05-23.45-4.13-6.95.66-14.92,8.78-14.5Z"/>
</svg>
