<?xml version="1.0" encoding="UTF-8"?>
<svg id="_レイヤー_1" data-name="レイヤー 1" xmlns="http://www.w3.org/2000/svg" viewBox="0 0 256 256">
  <defs>
    <style>
      .cls-1 {
        fill: none;
      }
    </style>
  </defs>
  <path class="cls-1" d="M256,0v256H0V0h256ZM48.09,27.09c-1,1-1.59,2.61-1.6,4.02v194.52c.26,2.86,2.29,4.82,5.13,5.13h147.02c2.3.06,5.05-1.97,5.5-4.25.33-37.11.05-74.32-.14-111.41,0-1.41.06-2.82-.01-4.24-.74-11.51,1.04-24.57.02-36-.14-1.56-.82-2.56-1.77-3.73l-43.86-43.89c-1.18-1.14-2.58-1.73-4.25-1.75H51.87c-1.33.08-2.83.66-3.78,1.6Z"/>
  <path d="M48.09,27.09c.94-.94,2.44-1.52,3.78-1.6h102.27c1.66.02,3.07.61,4.25,1.75l43.86,43.89c.95,1.17,1.63,2.17,1.77,3.73,1.02,11.43-.76,24.49-.02,36,.07,1.42,0,2.84.01,4.24.19,37.09.47,74.29.14,111.41-.46,2.27-3.2,4.3-5.5,4.25H51.61c-2.84-.31-4.87-2.27-5.12-5.13V31.11c0-1.42.6-3.03,1.6-4.02ZM150.25,36H56l.25,184h138.25V80h-39.62c-1.3,0-3.26-1.75-3.88-2.87-.13-.23-.74-1.66-.74-1.76v-39.38ZM187,70.25l-27-27v27h27Z"/>
  <path class="cls-1" d="M150.25,36v39.38c0,.1.61,1.53.74,1.76.63,1.12,2.58,2.87,3.88,2.87h39.62v140H56.25l-.25-184h94.25ZM119.84,78.91l-15.41-15.46c-2.77-1.57-5.51.88-7.17,2.93-1.31,1.63-1.91,2.91-.62,4.85l16.85,16.89-16.74,16.75c-.87,1.04-1.04,2.81-.52,4.02.27.62,3.45,3.81,4.09,4.16,1.1.59,2.38.67,3.53.17l17.52-17.22,16.75,16.74c.95.79,2.25.94,3.44.69,1.04-.22,4.5-3.53,4.98-4.52.65-1.34.45-2.08-.25-3.35l-17.3-17.45,16.99-17c.84-1.03,1.05-2.52.47-3.71-.17-.35-3.29-3.67-3.63-3.87-1.16-.69-2.62-.73-3.84-.16l-17.38,17.12-1.78-1.58ZM96.25,123.62v32.38h6.75v-20.75l12.62,20.75h7c.57-.35.12-.54.12-.62v-31.75c-.22-.35-.5-.35-.86-.39-1.77-.2-4.06.34-5.89.02v21.25l-12.36-21.03-6.76-.23c-.23-.02-.57.19-.63.38ZM138.95,130.58c-16.87,1.26-14.47,29.74,4.06,25.81,13.97-2.96,12.78-27.07-4.06-25.81ZM74.25,160.75h-6.75v30.75h6.75v-30.75ZM86.25,168.5h-6.75v23h6.75v-14.88c0-.34.9-1.94,1.24-2.26,1.21-1.16,3.36-1.26,4.52,0,.28.3.99,1.74.99,2.01v15.12h6.5v-14.62c0-2.07,3.17-4.27,5.24-2.99.51.31,1.51,1.71,1.51,2.24v15.38h6.5v-16.62c0-.26-.56-2.16-.7-2.55-2.25-5.83-10.69-5.65-13.42-.33-1.76-4.2-7.73-5.35-11.11-2.36-.64.57-.77,1.59-1.51,1.61l.25-2.75ZM137,191.5c-1.13-5.28.02-11.09-.53-16.34-.32-3.08-2.05-5.52-5.02-6.48-6.17-1.98-14.42.02-14.69,7.57h6.5c-.58-4.14,6.52-4.94,6.98-1.1.12,1,.13,1.49-.87,1.83-4.08,1.4-12.04.4-13.05,6.7-1.39,8.71,9.57,11.09,14.19,5.06l.25,2.75h6.25ZM161,191.62v-23.12h-6v2.5s-2.17-1.96-2.17-1.96c-4.63-2.71-10.4.14-12.38,4.79-3.75,8.85,1.64,20.75,12.38,16.38l2.16-1.96c-.53,2.33.3,4.98-2.02,6.61-1.51,1.06-4.96.94-5.99-.72-.24-.39-.2-.92-.36-1.14-.56-.78-5.24.27-6.38,0,.49,8.63,14.1,9.89,18.63,4.01.94-1.22,1.95-3.87,2.12-5.38ZM186,181.25c.33-6.42-2.38-12.52-9.41-13.22-9.57-.95-14.21,7.42-12.28,16.03,2.43,10.79,19.52,10.9,21.43-.06h-6.25c-.2,2.7-3.54,3.65-5.75,2.87s-3.18-3.37-3-5.62h15.25Z"/>
  <polygon class="cls-1" points="187 70.25 160 70.25 160 43.25 187 70.25"/>
  <path d="M119.84,78.91l1.78,1.58,17.38-17.12c1.22-.56,2.67-.52,3.84.16.34.2,3.45,3.52,3.63,3.87.59,1.19.38,2.68-.47,3.71l-16.99,17,17.3,17.45c.7,1.27.89,2.01.25,3.35-.48.99-3.94,4.3-4.98,4.52-1.19.25-2.5.1-3.44-.69l-16.75-16.74-17.52,17.22c-1.14.49-2.43.42-3.53-.17-.64-.35-3.83-3.54-4.09-4.16-.52-1.21-.35-2.98.52-4.02l16.74-16.75-16.85-16.89c-1.3-1.95-.69-3.22.62-4.85,1.66-2.06,4.4-4.5,7.17-2.93l15.41,15.46Z"/>
  <path d="M96.25,123.62c.06-.18.4-.4.63-.38l6.76.23,12.36,21.03v-21.25c1.82.33,4.12-.21,5.89-.02.37.04.64.04.86.39v31.75c0,.09.44.28-.12.62h-7l-12.62-20.75v20.75h-6.75v-32.38Z"/>
  <path d="M86.25,168.5l-.25,2.75c.75-.02.87-1.04,1.51-1.61,3.38-2.99,9.35-1.85,11.11,2.36,2.73-5.33,11.17-5.5,13.42.33.15.38.7,2.29.7,2.55v16.62h-6.5v-15.38c0-.53-1.01-1.92-1.51-2.24-2.06-1.29-5.24.92-5.24,2.99v14.62h-6.5v-15.12c0-.27-.71-1.71-.99-2.01-1.17-1.26-3.31-1.16-4.52,0-.34.32-1.24,1.93-1.24,2.26v14.88h-6.75v-23h6.75Z"/>
  <path d="M161,191.62c-.17,1.51-1.18,4.16-2.12,5.38-4.53,5.88-18.15,4.63-18.63-4.01,1.14.27,5.82-.79,6.38,0,.16.22.12.75.36,1.14,1.04,1.67,4.48,1.79,5.99.72,2.31-1.63,1.48-4.27,2.02-6.61l-2.16,1.96c-10.74,4.37-16.14-7.54-12.38-16.38,1.97-4.65,7.74-7.5,12.38-4.79l2.17,1.96v-2.5h6v23.12ZM149.43,173.31c-4.28.79-4.66,10.76-.44,12.32,7.57,2.79,8.58-13.82.44-12.32Z"/>
  <path d="M138.95,130.58c16.84-1.26,18.03,22.85,4.06,25.81-18.53,3.93-20.93-24.55-4.06-25.81ZM139.45,136.06c-6.54.71-6.84,16.34,1.91,14.93,5.98-.97,5.8-15.76-1.91-14.93Z"/>
  <path d="M137,191.5h-6.25l-.25-2.75c-4.62,6.02-15.58,3.65-14.19-5.06,1.01-6.31,8.97-5.31,13.05-6.7,1-.34.99-.83.87-1.83-.46-3.84-7.56-3.04-6.98,1.1h-6.5c.28-7.55,8.52-9.55,14.69-7.57,2.98.96,4.7,3.4,5.02,6.48.55,5.26-.6,11.06.53,16.34ZM130.5,180.75c-2.22.62-6.96.53-7.44,3.44-.52,3.12,3.33,3.56,5.43,2.17,1.98-1.31,1.91-3.48,2.02-5.61Z"/>
  <path d="M186,181.25h-15.25c-.18,2.25.72,4.82,3,5.62s5.55-.18,5.75-2.87h6.25c-1.91,10.96-19,10.85-21.43.06-1.94-8.6,2.7-16.97,12.28-16.03,7.02.7,9.74,6.8,9.41,13.22ZM179.5,177.25c-.63-6.05-8.01-6.08-8.75,0h8.75Z"/>
  <rect x="67.5" y="160.75" width="6.75" height="30.75"/>
  <path class="cls-1" d="M149.43,173.31c8.14-1.5,7.13,15.1-.44,12.32-4.22-1.56-3.84-11.53.44-12.32Z"/>
  <path class="cls-1" d="M139.45,136.06c7.71-.84,7.9,13.96,1.91,14.93-8.75,1.42-8.45-14.22-1.91-14.93Z"/>
  <path class="cls-1" d="M130.5,180.75c-.11,2.12-.04,4.29-2.02,5.61-2.1,1.39-5.95.95-5.43-2.17.48-2.91,5.22-2.82,7.44-3.44Z"/>
  <path class="cls-1" d="M179.5,177.25h-8.75c.74-6.08,8.12-6.05,8.75,0Z"/>
</svg>
