<?xml version="1.0" encoding="UTF-8"?>
<svg id="_レイヤー_1" data-name="レイヤー 1" xmlns="http://www.w3.org/2000/svg" viewBox="0 0 512 512">
  <defs>
    <style>
      .cls-1 {
        fill: none;
      }
    </style>
  </defs>
  <path class="cls-1" d="M512,0v512H0V0h512ZM141.9,86.15c-27.62,2.92-49.61,26.02-51.89,53.61v210.49c2.22,28.67,25.51,51.25,54.22,52.78l224.02-.03c29.24-2.23,52.02-25.41,53.78-54.72l-.03-208.52c-2.19-27.69-24.5-50.99-52.25-53.75l-227.84.14Z"/>
  <path d="M141.9,86.15l227.84-.14c27.76,2.75,50.06,26.06,52.25,53.75l.03,208.52c-1.75,29.31-24.53,52.49-53.78,54.72l-224.02.03c-28.71-1.52-52-24.11-54.22-52.78v-210.49c2.28-27.59,24.27-50.69,51.89-53.61ZM144.9,116.65c-12.19,1.31-21.4,11.07-22.89,23.11l-.03,207.01c1.28,14.38,12.88,24.69,27.25,24.75h215.54c14.68-1.13,24.7-11.67,25.75-26.25-.53-69.24.96-138.67-.75-207.79-2.39-11.57-12.19-20.07-24-21l-220.87.17Z"/>
  <path class="cls-1" d="M144.9,116.65l220.87-.17c11.81.93,21.61,9.43,24,21,1.71,69.12.22,138.55.75,207.79-1.05,14.58-11.07,25.12-25.75,26.25h-215.54c-14.37-.06-25.96-10.37-27.25-24.75l.03-207.01c1.49-12.04,10.69-21.8,22.89-23.11ZM252.39,141.14c-18.31,2.08-30.24,20.61-25.02,38.24,7.71,26.03,41.45,30.17,54.71,5.96,11.74-21.44-6.14-46.88-29.7-44.2ZM220.38,216.13c-4.54.73-9.32,3.7-9.88,8.62-.45,3.96-.55,12.58,1.78,15.72,6.63,8.89,20.57-3.62,21.74,11.26,1.5,19.13-1.16,40.19-.02,59.52-.89,7.97-7.15,5.24-12.74,5.76-6.41.6-10.23,4.87-10.78,11.22-.76,8.73.52,16.9,10.75,17.79,22.34,1.93,47.41-1.5,70.04,0,10.19-1.6,11.17-10.56,10.23-19.27-.63-5.85-5.75-9.27-11.26-9.74-3.8-.32-9.64,1.62-10.2-3.8-.58-28.53.95-57.31-.79-85.71-2.02-6.24-7.5-10.74-14.07-11.43-14.07-1.47-30.5.86-44.81.07Z"/>
  <path d="M220.38,216.13c14.31.79,30.74-1.53,44.81-.07,6.57.68,12.05,5.19,14.07,11.43,1.74,28.4.2,57.18.79,85.71.56,5.42,6.39,3.48,10.2,3.8,5.51.47,10.63,3.89,11.26,9.74.94,8.71-.04,17.67-10.23,19.27-22.63-1.5-47.7,1.93-70.04,0-10.23-.88-11.51-9.06-10.75-17.79.55-6.36,4.37-10.63,10.78-11.22,5.59-.52,11.85,2.21,12.74-5.76-1.14-19.33,1.52-40.39.02-59.52-1.17-14.89-15.11-2.38-21.74-11.26-2.34-3.14-2.24-11.76-1.78-15.72.56-4.92,5.34-7.89,9.88-8.62Z"/>
  <path d="M252.39,141.14c23.56-2.68,41.44,22.76,29.7,44.2-13.26,24.21-47,20.08-54.71-5.96-5.22-17.63,6.71-36.16,25.02-38.24Z"/>
</svg>
