<?xml version="1.0" encoding="UTF-8"?>
<svg id="_レイヤー_1" data-name="レイヤー 1" xmlns="http://www.w3.org/2000/svg" viewBox="0 0 512 512">
  <defs>
    <style>
      .cls-1 {
        fill: none;
      }
    </style>
  </defs>
  <path class="cls-1" d="M512,0v512H0V0h512ZM182.5,250h57.25l.75,39c.56.63,3.66-2.98,4.26-3.48,3.84-3.22,8.02-6.07,12.24-8.76v-26.75h24c-.01-.25-.01-.66.17-.81,3.91-3.05,12.65-11.36,15.58-15.19.39-.5.96-.63.75-1.5h-40.5l-.5-47,51.48-.97c2.29,10.86,4.5,21.86,5.02,32.97l15.92-10.82-3.92-24.17,42.67-4.45c3.93,6.45,5.95,14.14,8.84,21.18,4.8,2.38,9.81,4.4,14.5,7,.88.49,7.68,5.11,7.99,4.76-13.76-79.13-90.71-135.43-170.68-123.93-112.45,16.18-170.86,142-108.83,238.19,15.45,23.96,37.86,44.94,64.51,55.74l.78-20.5c-18.62-10.29-35.77-24.51-47.27-42.49l37.52-3.28c3.34,8.66,6.02,17.67,9.89,26.11.8,1.74,1.99,4.51,2.97,6.02.31.48-.05.9,1.11.64,2.11-6.16,6.28-11.22,9.51-16.78l-6-17.22,21.65-.61,15.85-15.15c.21-1.13-.49-.69-1.24-.74-13.33-.97-27.35,1.04-40.73.48-2.97-15.64-5.75-31.48-5.52-47.48ZM276.5,270.5c10.76-1.33,21.21-.39,31.64,2.43,10.45-8.65,19.11-19.3,29.1-28.44,14.84-13.58,33.39-15.83,47.25.78,21.77,26.09-6.38,45.71-23.25,62.22-18.86,18.46-34.55,42.29-61.74,16.77-3.57-3.36-6.51-9.17-11.8-9.7-7.68-.77-16.87,5.57-15.08,14.08.77,3.65,9.8,12.94,12.88,15.62,20.01,17.43,49.43,20.61,70.27,2.76,13.88-15.56,31.81-29,45.49-44.51,39.14-44.33-6.65-110.34-61.52-89.02-14.08,5.47-22.03,15.92-32.48,26.02-8.71,8.43-22.97,20.3-30.02,29.48-.38.5-.97.63-.74,1.5ZM232.82,347.33c10.64-10.95,24.27-26.08,35.67-35.58,9.27-7.73,21.39-9.35,31.85-2.84,8.56,5.32,17.93,22.8,30.15,10.84,7.14-6.98,4.6-11.76-1.01-18.48-18.53-22.18-52.97-29.02-75.99-9.52-24.79,28.26-66.43,48.82-56.65,93.16,9.12,41.35,58.32,57.25,90.66,29.85,10.51-8.91,25.99-24.82,35.25-35.25,2.47-2.78,4.76-5.86,6.74-9-9.71.45-19.22-1.78-28.52-4.25-9.87,8.89-18.77,20.11-28.72,28.76-31.39,27.3-67.92-14.11-46.25-40.75,1.99-2.44,4.61-4.67,6.81-6.94Z"/>
  <path d="M182.5,250c-.23,16,2.56,31.84,5.52,47.48,13.38.57,27.4-1.45,40.73-.48.74.05,1.45-.39,1.24.74l-15.85,15.15-21.65.61,6,17.22c-3.23,5.56-7.4,10.62-9.51,16.78-1.17.25-.8-.16-1.11-.64-.98-1.51-2.17-4.28-2.97-6.02-3.87-8.44-6.56-17.45-9.89-26.11l-37.52,3.28c11.51,17.98,28.65,32.2,47.27,42.49l-.78,20.5c-26.64-10.8-49.05-31.78-64.51-55.74-62.03-96.19-3.62-222.01,108.83-238.19,79.97-11.5,156.92,44.8,170.68,123.93-.3.35-7.11-4.27-7.99-4.76-4.69-2.6-9.7-4.62-14.5-7-2.89-7.05-4.91-14.74-8.84-21.18l-42.67,4.45,3.92,24.17-15.92,10.82c-.52-11.11-2.73-22.11-5.02-32.97l-51.48.97.5,47h40.5c.22.87-.36,1-.75,1.5-2.93,3.83-11.67,12.14-15.58,15.19-.19.14-.18.55-.17.81h-24v26.75c-4.22,2.69-8.4,5.54-12.24,8.76-.6.5-3.7,4.11-4.26,3.48l-.75-39h-57.25ZM240,106.5c-8.56.9-16.15,7.84-21.76,13.99-12.16,13.34-20.17,30.02-25.25,47.25l47.01.76v-62ZM257,106.5v62l46.51-.76c-7.98-24.23-21.61-51.12-46.51-61.24ZM359,163.5l-11.74-15.5c-14.73-15.42-32.91-27.73-53.26-34.49,12.74,15.49,21.05,34.25,26.54,53.46l38.46-3.46ZM202,114c-19.96,7.26-38.45,19.28-52.76,34.99-2.94,3.23-6.77,7.74-9.15,11.35-.34.52-2.03,2.78-1.59,3.16l37.43,2.93c5.8-18.52,13.2-37.68,26.07-52.42ZM114,233h51.5c.25-16.81,3.08-33.49,6-50l-42.2-4.39c-1.05.19-3.81,6.26-4.39,7.55-6.5,14.38-10.12,31.11-10.91,46.84ZM240,185.5l-51.45-.95c-3.26,15.92-5.71,32.17-6.05,48.45h56.75l.75-.75v-46.75ZM165.5,250.5h-51c-.17,10.31,2.2,21.17,5.25,31,1.69,5.43,4.2,12.24,6.66,17.34.74,1.53,1.48,4.24,3.33,4.21,13.68-1.97,27.45-3.36,41.26-4.05-2.68-16.03-5.51-32.18-5.5-48.5Z"/>
  <path d="M276.5,270.5c-.23-.87.36-1,.74-1.5,7.04-9.19,21.31-21.05,30.02-29.48,10.44-10.11,18.39-20.55,32.48-26.02,54.87-21.32,100.66,44.69,61.52,89.02-13.69,15.5-31.62,28.95-45.49,44.51-20.84,17.86-50.26,14.67-70.27-2.76-3.08-2.68-12.11-11.97-12.88-15.62-1.79-8.51,7.4-14.85,15.08-14.08,5.29.53,8.22,6.35,11.8,9.7,27.19,25.52,42.88,1.69,61.74-16.77,16.87-16.51,45.02-36.13,23.25-62.22-13.86-16.61-32.41-14.35-47.25-.78-9.99,9.14-18.65,19.79-29.1,28.44-10.43-2.82-20.88-3.76-31.64-2.43Z"/>
  <path d="M232.82,347.33c-2.2,2.26-4.82,4.5-6.81,6.94-21.67,26.64,14.86,68.05,46.25,40.75,9.95-8.65,18.85-19.87,28.72-28.76,9.29,2.48,18.8,4.7,28.52,4.25-1.99,3.14-4.28,6.22-6.74,9-9.26,10.43-24.74,26.34-35.25,35.25-32.34,27.4-81.55,11.5-90.66-29.85-9.78-44.34,31.87-64.9,56.65-93.16,23.02-19.5,57.46-12.66,75.99,9.52,5.61,6.72,8.15,11.5,1.01,18.48-12.22,11.95-21.59-5.52-30.15-10.84-10.47-6.51-22.58-4.89-31.85,2.84-11.4,9.5-25.03,24.64-35.67,35.58Z"/>
  <path class="cls-1" d="M240,185.5v46.75l-.75.75h-56.75c.34-16.28,2.79-32.53,6.05-48.45l51.45.95Z"/>
  <path class="cls-1" d="M114,233c.79-15.73,4.42-32.46,10.91-46.84.58-1.29,3.34-7.36,4.39-7.55l42.2,4.39c-2.92,16.51-5.76,33.19-6,50h-51.5Z"/>
  <path class="cls-1" d="M165.5,250.5c0,16.33,2.82,32.47,5.5,48.5-13.81.68-27.58,2.08-41.26,4.05-1.85.03-2.59-2.68-3.33-4.21-2.46-5.1-4.97-11.91-6.66-17.34-3.05-9.83-5.42-20.69-5.25-31h51Z"/>
  <path class="cls-1" d="M240,106.5v62l-47.01-.76c5.09-17.23,13.09-33.91,25.25-47.25,5.61-6.15,13.2-13.09,21.76-13.99Z"/>
  <path class="cls-1" d="M257,106.5c24.9,10.13,38.53,37.01,46.51,61.24l-46.51.76v-62Z"/>
  <path class="cls-1" d="M359,163.5l-38.46,3.46c-5.49-19.21-13.8-37.96-26.54-53.46,20.34,6.75,38.52,19.07,53.26,34.49l11.74,15.5Z"/>
  <path class="cls-1" d="M202,114c-12.87,14.74-20.27,33.9-26.07,52.42l-37.43-2.93c-.44-.37,1.25-2.64,1.59-3.16,2.38-3.61,6.21-8.12,9.15-11.35,14.31-15.71,32.8-27.73,52.76-34.99Z"/>
</svg>
