<?xml version="1.0" encoding="UTF-8"?>
<svg id="_レイヤー_1" data-name="レイヤー 1" xmlns="http://www.w3.org/2000/svg" viewBox="0 0 512 512">
  <defs>
    <style>
      .cls-1 {
        fill: none;
      }
    </style>
  </defs>
  <path class="cls-1" d="M512,0v512H0V0h512ZM285.4,28.65c-37.95,2.47-61.39,38.22-48.41,74.11,9.47,26.2,31.38,51.44,47.97,73.53,5.16,4.15,12.06-6.87,14.75-10.33,14.3-18.4,40.94-55.24,42.78-78.22,2.62-32.58-24.14-61.24-57.09-59.09ZM191,150.5h17.25c3.57,0,1.8-9.28,3.21-11.29,1.69-2.39,7.98-.09,10.56-5.44,2.84-5.86,3.55-15.75,5.95-22.08-.14-2.12-1.09-3.21-3.22-3.24-2.8-.03-10.26,2.67-13.66,3.39-44.8,9.44-109.65,9.48-154.69,1-5.57-1.05-12.67-3.58-17.79-4.21-2.6-.32-4.64-.02-4.6,3.04,2.65,6.57,3.34,16.15,6.22,22.33,2.2,4.72,7.98,2.71,9.99,5.01,1.76,2.01-.18,7,1.55,9.95.19.33,1.34,1.54,1.46,1.54h17.25l-1.52,16.47c-.6.58-14.31-.32-16.75,0-.97.13-2.03.57-2.46,1.54s-.53,13.28-.25,14.73c.12.65,1.41,2.26,1.74,2.26h16.25l-6.49,66.65c-.3,1.25-5.3-.29-5.98,4.13l-2.07,23.98c.11,2.2,1.95,2.61,3.77,2.77,6.81.6,22.38.75,29.03-.02.93-.11,2.33-.34,2.66-1.34l.07-26.9-.98-1.52-3.01-.24,3.5-66.25.75-1.25h84.75l3.5,67.5c-1.61-.1-3.13-.11-3.49,1.76.49,8.1-.7,17.02-.03,25.01.08.91.07,1.83.64,2.61.94.67,2.03.57,3.11.64,7.34.5,21.42.76,28.53-.02,1.93-.21,2.39-.56,2.96-2.44l-2.45-25.58c-1.05-3.08-5.44-1.83-5.79-2.8l-6.48-66.68h16.25c.33,0,1.61-1.61,1.74-2.26.28-1.45.16-13.82-.25-14.73-.12-.26-1.38-1.51-1.49-1.51h-17.75l-1.5-16.5ZM432.49,209.48l-5.61-36.61-2.36-4.14-64.49-27.51h-4.55s-37.65,16.86-37.65,16.86l-13.33,16.67,47.99-20.25,7.51,122.5c1.99-2.36,7.67-6.36,9.02-8.72.28-.49.56-.9.5-1.5l-6.53-112.27,53.49,22.25,6.01,35.74,9.98-3.02ZM261,162l-10.48-14.26c-3.32-3.37-7.93-4.76-12.5-2.97l-27.51,12.24,5.01,2.73,3.76,5.28,18.23-8.01-5.49,79c2.9-3.11,4.64-7.03,8.03-9.72.89-.7,3.07-1.13,3.39-2.11,1.14-20.33,3.2-40.62,4.57-60.93.09-1.38-.64-6.82,1.04-6.55l11.96,5.31ZM152,351.5l12.93-75.81c.9-8.97-2.05-19.43,2.83-27.42l-1.77-43.26-25.94,153.31c-.9,4.48,3.17,7.65,7.47,6.46l81.78-27.26,51.5,17.98c2.66.26,6.93-6.12,9.19-7.75l-54.28-19.72,3.29-45.26-9.75-10.78-3.98,55.03-73.27,24.48ZM359,336.01c6.25-1.53,13.31-1.59,18.5-5.75,7.01-5.6,16.55-16.78,22.75-23.75,15.84-17.79,39.4-46.66,47.75-68.75,6.94-18.34-8.93-25-22.52-15.02l-88.77,89.74-.73,1.52c-3.86-3.63-11.29-8.21-11.01-14.23.11-2.25,1.37-4.97,1.53-7.5.49-7.58-2.29-14.75-7.03-20.5l-54.13-51.87c-4.89-3.12-10.75,2.32-7.27,7.27l39.4,39.6c4.17,4.09-.58,11.13-5.74,7.74l-40.57-40.43c-4.21-2.51-9.07.68-8.16,5.65.24,1.29,3.65,5.08,4.72,6.28,11.01,12.37,23.34,23.75,34.48,36.02,4.52,4.79-1.75,11.91-6.97,8.47l-39.79-39.21c-5.68-5.72-13.41,1.19-8.21,7.21l52.52,53.48c4.35,3.53,11.84,6.56,17.49,6.56,4.3,0,7.2-1.98,11.88-.43,4.04,1.34,8.03,7.42,11.33,10.2l-76.17,76.72c-9.85,13.09,8.16,31.07,20.71,19.71,21.81-24,44.21-47.46,66.25-71.25,1.94-2.09,4.33-4.7,5.75-7.01,25.45,25.95,49.63,53.19,74.74,79.5,11.81,8.59,28.11-8.01,19.97-19.97l-72.72-70.03ZM378,340.49l73.21,23.47c3.93-.51,5.43-3.49,5.29-7.2l-14.01-90.27c-2.43,3.08-8.61,9.42-8.53,13.25l11.04,71.25-56.85-18.9c-1.05-.02-4.68,4.38-5.91,5.39-1.37,1.12-3.19,1.63-4.24,3.01Z"/>
  <path d="M359,336.01l72.72,70.03c8.14,11.95-8.15,28.56-19.97,19.97-25.11-26.31-49.29-53.55-74.74-79.5-1.43,2.31-3.81,4.92-5.75,7.01-22.04,23.78-44.44,47.25-66.25,71.25-12.55,11.35-30.57-6.62-20.71-19.71l76.17-76.72c-3.3-2.78-7.29-8.87-11.33-10.2-4.68-1.55-7.58.44-11.88.43-5.65,0-13.14-3.03-17.49-6.56l-52.52-53.48c-5.2-6.02,2.53-12.93,8.21-7.21l39.79,39.21c5.23,3.44,11.49-3.68,6.97-8.47-11.13-12.27-23.47-23.66-34.48-36.02-1.07-1.21-4.48-5-4.72-6.28-.92-4.97,3.94-8.16,8.16-5.65l40.57,40.43c5.16,3.39,9.91-3.65,5.74-7.74l-39.4-39.6c-3.49-4.95,2.38-10.39,7.27-7.27l54.13,51.87c4.74,5.75,7.52,12.92,7.03,20.5-.16,2.53-1.43,5.25-1.53,7.5-.29,6.01,7.15,10.59,11.01,14.23l.73-1.52,88.77-89.74c13.59-9.98,29.46-3.33,22.52,15.02-8.35,22.08-31.92,50.95-47.75,68.75-6.21,6.97-15.75,18.14-22.75,23.75-5.2,4.16-12.25,4.22-18.5,5.75Z"/>
  <path d="M191,150.5l1.5,16.5h17.75c.11,0,1.37,1.25,1.49,1.51.41.9.52,13.28.25,14.73-.12.65-1.41,2.26-1.74,2.26h-16.25l6.48,66.68c.35.97,4.73-.27,5.79,2.8l2.45,25.58c-.57,1.88-1.03,2.23-2.96,2.44-7.11.78-21.19.52-28.53.02-1.08-.07-2.17.03-3.11-.64-.56-.78-.56-1.7-.64-2.61-.67-7.99.53-16.91.03-25.01.35-1.88,1.87-1.87,3.49-1.76l-3.5-67.5h-84.75l-.75,1.25-3.5,66.25,3.01.24.98,1.52-.07,26.9c-.33,1-1.73,1.23-2.66,1.34-6.65.77-22.22.62-29.03.02-1.82-.16-3.66-.57-3.77-2.77l2.07-23.98c.68-4.42,5.68-2.87,5.98-4.13l6.49-66.65h-16.25c-.33,0-1.61-1.61-1.74-2.26-.28-1.45-.17-13.76.25-14.73s1.49-1.41,2.46-1.54c2.44-.32,16.15.58,16.75,0l1.52-16.47h-17.25c-.12,0-1.27-1.21-1.46-1.54-1.74-2.95.21-7.93-1.55-9.95-2.01-2.29-7.79-.29-9.99-5.01-2.89-6.18-3.57-15.76-6.22-22.33-.04-3.06,2-3.36,4.6-3.04,5.12.63,12.22,3.16,17.79,4.21,45.04,8.48,109.89,8.44,154.69-1,3.41-.72,10.87-3.43,13.66-3.39,2.13.02,3.08,1.12,3.22,3.24-2.4,6.34-3.11,16.22-5.95,22.08-2.59,5.35-8.88,3.05-10.56,5.44-1.41,2,.35,11.29-3.21,11.29h-17.25ZM121.5,150.5h-31l-1,16.5h31.75c1.14-.7.25-1.07.25-1.25v-15.25ZM171.5,150.5h-32v16.5h32.25c.51-.37.54-.44.54-1.02.01-5.14-1.24-10.31-.79-15.48Z"/>
  <path d="M285.4,28.65c32.96-2.15,59.72,26.51,57.09,59.09-1.85,22.97-28.48,59.82-42.78,78.22-2.69,3.46-9.59,14.48-14.75,10.33-16.59-22.09-38.49-47.33-47.97-73.53-12.98-35.89,10.46-71.64,48.41-74.11ZM283.38,57.13c-28.16,3.81-28.76,49.18,1.88,51.86,38.83,3.4,37.91-57.25-1.88-51.86Z"/>
  <path d="M152,351.5l73.27-24.48,3.98-55.03,9.75,10.78-3.29,45.26,54.28,19.72c-2.26,1.63-6.53,8.01-9.19,7.75l-51.5-17.98-81.78,27.26c-4.3,1.19-8.37-1.98-7.47-6.46l25.94-153.31,1.77,43.26c-4.88,7.99-1.93,18.45-2.83,27.42l-12.93,75.81Z"/>
  <path d="M432.49,209.48l-9.98,3.02-6.01-35.74-53.49-22.25,6.53,112.27c.06.6-.22,1.01-.5,1.5-1.36,2.36-7.03,6.36-9.02,8.72l-7.51-122.5-47.99,20.25,13.33-16.67,37.65-16.85h4.55s64.49,27.5,64.49,27.5l2.36,4.14,5.61,36.61Z"/>
  <path d="M378,340.49c1.05-1.38,2.87-1.89,4.24-3.01,1.24-1.01,4.87-5.41,5.91-5.39l56.85,18.9-11.04-71.25c-.08-3.83,6.1-10.17,8.53-13.25l14.01,90.27c.14,3.7-1.36,6.69-5.29,7.2l-73.21-23.47Z"/>
  <path d="M261,162l-11.96-5.31c-1.68-.27-.95,5.17-1.04,6.55-1.38,20.31-3.43,40.59-4.57,60.93-.32.98-2.5,1.41-3.39,2.11-3.38,2.69-5.13,6.61-8.03,9.72l5.49-79-18.23,8.01-3.76-5.28-5.01-2.73,27.51-12.24c4.56-1.79,9.18-.39,12.5,2.97l10.48,14.26Z"/>
  <path class="cls-1" d="M171.5,150.5c-.45,5.17.81,10.34.79,15.48,0,.58-.03.65-.54,1.02h-32.25v-16.5h32Z"/>
  <path class="cls-1" d="M121.5,150.5v15.25c0,.18.89.55-.25,1.25h-31.75l1-16.5h31Z"/>
  <path class="cls-1" d="M283.38,57.13c39.79-5.38,40.71,55.26,1.88,51.86-30.64-2.68-30.04-48.05-1.88-51.86Z"/>
</svg>
