<?xml version="1.0" encoding="UTF-8"?>
<svg id="_レイヤー_1" data-name="レイヤー 1" xmlns="http://www.w3.org/2000/svg" viewBox="0 0 256 256">
  <defs>
    <style>
      .cls-1 {
        fill: none;
      }
    </style>
  </defs>
  <path class="cls-1" d="M256,0v256H0V0h256ZM213,173.25c8.77-.42,17.44-6.42,18.93-15.44.64-3.86.06-7.43.05-11.17-.02-7.6.18-15.18.17-22.72,0-3-.23-6.04-.17-9.05-.69-10.97.98-23.35,0-34.24-1.03-11.58-14.18-16.88-24.36-16.64-46.75.19-93.53-.33-140.26.26-18.45,1.78-21.98,11.3-28.49,26.51-5.18,12.09-14.22,33.12-14.89,45.86-.28,5.36-.67,18.71.58,23.44,2.98,11.29,15.9,14.38,26.17,13.45,1.61-14.63,14.08-24.3,28.76-21.38,10.07,2,18.22,11.15,18.99,21.38h67c1.35-16.03,17.36-26.21,32.56-20.19,8.13,3.22,14.13,11.2,14.94,19.94ZM72.7,157.82c-14.36,1.36-20.79,18.31-11.69,29.29,7.92,9.56,22.74,8.08,29.1-2.39,7.72-12.7-2.94-28.28-17.41-26.91ZM187.2,157.82c-13.61,1.4-20.27,16.79-12.65,28.01,7.48,11,23.7,9.88,30.15-1.5,7.22-12.73-3.14-27.98-17.5-26.5Z"/>
  <path d="M213,173.25c-.81-8.74-6.8-16.72-14.94-19.94-15.2-6.02-31.22,4.16-32.56,20.19h-67c-.77-10.24-8.92-19.38-18.99-21.39-14.68-2.92-27.15,6.75-28.76,21.38-10.27.94-23.19-2.16-26.17-13.45-1.25-4.72-.87-18.07-.58-23.44.67-12.73,9.72-33.77,14.89-45.86,6.51-15.21,10.05-24.73,28.49-26.51,46.73-.59,93.51-.07,140.26-.26,10.18-.24,23.33,5.06,24.36,16.64.97,10.89-.7,23.26,0,34.24-.07,3.01.16,6.05.17,9.05.01,7.54-.18,15.12-.17,22.72,0,3.75.59,7.32-.05,11.17-1.5,9.01-10.17,15.02-18.93,15.44ZM61.19,80.06c-3.18.51-4.8,2.35-6.15,5.1-3.87,7.86-6.11,17.3-9.62,25.39-.73,2.77.26,4.71,3.19,4.96,11.15.98,23.72-.77,35.02,0,2.11-.06,4.15-2.08,4.37-4.13.91-8.51-.69-18.58,0-27.26-.46-2.33-2.3-3.88-4.63-4.12-6.95-.7-15.11.47-22.18.06ZM149.91,81.34c-.77-.71-2.23-1.25-3.28-1.35-11.69-1.04-24.92.81-36.77,0-3.19.28-4.77,2.87-4.87,5.88.49,7.88-.61,16.47,0,24.27.23,2.95,1.5,5.03,4.62,5.38,11.96-.79,25.21,1.02,37.02,0,2.69-.23,4.63-1.84,4.88-4.62.75-8.35-.58-17.8,0-26.26-.11-1.01-.85-2.6-1.59-3.29ZM166.19,80.07c-2.21.37-3.93,2.03-4.19,4.31-.94,8.37.71,18.45,0,27,.26,1.93,1.39,3.43,3.3,3.95l42.09.18c2.45-.19,4.16-1.94,4.38-4.38.76-8.52-.6-18.14,0-26.77-.19-1.95-1.67-3.65-3.56-4.19l-42.01-.11ZM39.7,134.56c-9.64,1.02-7.15,16,2.44,12.96,7.89-2.51,4.92-13.73-2.44-12.96Z"/>
  <path d="M72.7,157.82c14.47-1.37,25.13,14.2,17.41,26.91-6.36,10.47-21.18,11.94-29.1,2.39-9.09-10.98-2.66-27.94,11.69-29.29Z"/>
  <path d="M187.2,157.82c14.36-1.48,24.72,13.78,17.5,26.5-6.46,11.39-22.68,12.51-30.15,1.5-7.62-11.21-.95-26.61,12.65-28.01Z"/>
  <path class="cls-1" d="M166.19,80.07l42.01.11c1.88.54,3.37,2.24,3.56,4.19-.6,8.63.76,18.26,0,26.77-.22,2.43-1.92,4.19-4.38,4.38l-42.09-.18c-1.9-.52-3.04-2.02-3.3-3.95.71-8.55-.94-18.63,0-27,.26-2.28,1.98-3.94,4.19-4.31Z"/>
  <path class="cls-1" d="M149.91,81.34c.73.68,1.47,2.28,1.59,3.29-.57,8.47.76,17.91,0,26.26-.25,2.78-2.18,4.39-4.88,4.62-11.8,1.02-25.06-.79-37.02,0-3.13-.35-4.39-2.43-4.62-5.38-.62-7.8.49-16.38,0-24.27.1-3,1.69-5.59,4.87-5.88,11.85.81,25.08-1.04,36.77,0,1.05.09,2.51.63,3.28,1.35Z"/>
  <path class="cls-1" d="M61.19,80.06c7.08.4,15.23-.77,22.18-.06,2.33.24,4.18,1.78,4.63,4.12-.69,8.67.91,18.75,0,27.26-.22,2.05-2.25,4.08-4.37,4.13-11.3-.77-23.87.98-35.02,0-2.93-.26-3.93-2.2-3.19-4.96,3.51-8.09,5.74-17.53,9.62-25.39,1.35-2.75,2.97-4.59,6.15-5.1Z"/>
  <path class="cls-1" d="M39.7,134.56c7.36-.78,10.33,10.45,2.44,12.96-9.59,3.05-12.09-11.94-2.44-12.96Z"/>
</svg>
