<?xml version="1.0" encoding="UTF-8"?>
<svg id="_レイヤー_1" data-name="レイヤー 1" xmlns="http://www.w3.org/2000/svg" viewBox="0 0 256 256">
  <defs>
    <style>
      .cls-1 {
        fill: none;
      }
    </style>
  </defs>
  <path class="cls-1" d="M256,0v256H0V0h256ZM163,81V29.88c0-.96-1.66-1.99-2.61-1.89l-65.95.07c-.56.1-1.69,1.38-1.69,1.81v51.12h-53.38c-.5,0-1.88,1.37-1.88,1.88v123.88h-13.38c-.72,0-1.5,1.45-1.6,2.15-.33,2.36-.35,10.88-.03,13.24.19,1.42,1.34,1.97,2.64,2.11l205.89-.11c1.21-.32,2.09-.95,2.24-2.26.29-2.42.33-10.67-.02-12.99-.12-.78-1.1-2.14-1.86-2.14h-13.12v-123.88c0-.5-1.37-1.88-1.88-1.88h-53.38Z"/>
  <path d="M163,81h53.38c.5,0,1.88,1.37,1.88,1.88v123.88h13.12c.76,0,1.74,1.36,1.86,2.14.35,2.32.31,10.57.02,12.99-.15,1.3-1.03,1.93-2.24,2.26l-205.89.11c-1.29-.14-2.44-.7-2.64-2.11-.32-2.36-.3-10.88.03-13.24.1-.7.88-2.15,1.6-2.15h13.38v-123.88c0-.5,1.37-1.88,1.88-1.88h53.38V29.88c0-.43,1.13-1.71,1.69-1.81l65.95-.07c.96-.11,2.61.92,2.61,1.89v51.12ZM125.7,36.57c-16.02,1.65-23.81,21.61-13.69,34.05,9.95,12.23,29.49,9.06,35.19-5.55,5.56-14.28-6.24-30.06-21.49-28.49ZM56.18,95.3c-1.04.27-1.32,1.1-1.43,2.07-.56,4.97.42,10.92,0,16.01.16,1.36.86,1.77,2.12,1.88,3.81.35,12.79.43,16.52,0,.83-.1,1.62-.45,1.63-1.37-.4-5.41.48-11.45,0-16.77-.13-1.44-.46-1.75-1.88-1.88-5.36-.49-11.52.34-16.96.07ZM105.93,95.58c-.39-.31-.83-.3-1.29-.34-4.13-.35-12.17-.38-16.27,0-1.44.13-1.75.46-1.88,1.88-.37,4.1-.35,12.15,0,16.27.11,1.33.48,1.72,1.88,1.87,3.75.42,12.45.35,16.27,0,.92-.08,1.82-.29,1.88-1.37-.41-5.39.51-11.48,0-16.78-.05-.49-.19-1.21-.59-1.53ZM119.43,95.3c-.69.25-1.43.76-1.44,1.56.39,5.33-.48,11.28,0,16.52.13,1.44.46,1.75,1.88,1.88,5.33.49,11.37-.4,16.77,0,.79-.05,1.58-.85,1.62-1.62-.47-5.23.58-11.41,0-16.52-.13-1.15-.72-1.74-1.88-1.88-5.21-.6-11.62.42-16.95.06ZM150.68,95.3c-.92.27-1.33.89-1.43,1.82-.58,5.02.45,11.12,0,16.26.15,1.17.66,1.77,1.87,1.88,5.29.51,11.4-.42,16.78,0,.79-.05,1.58-.85,1.62-1.62-.47-5.23.58-11.41,0-16.52-.13-1.1-.74-1.79-1.88-1.88l-16.95.06ZM182.43,95.3c-.69.25-1.43.76-1.44,1.56.39,5.33-.48,11.28,0,16.52.13,1.44.46,1.75,1.88,1.88,5.24.48,11.2-.38,16.52,0,1.36-.16,1.77-.86,1.88-2.12.35-3.85.35-11.68,0-15.52-.12-1.35-.38-2.2-1.88-2.37-5.21-.6-11.61.42-16.95.06ZM55.93,126.3c-.88.47-1.1,1.13-1.19,2.06-.47,5.08.38,10.86,0,16.02.15,1.17.66,1.77,1.87,1.88,5.37.52,11.57-.43,17.03,0,1.05-.14,1.29-.68,1.38-1.62.52-5.37-.43-11.57,0-17.03-.02-.74-.62-1.35-1.38-1.38l-17.71.06ZM87.68,126.3c-.78.18-1.16.79-1.18,1.57.38,5.32-.48,11.28,0,16.52.13,1.44.46,1.75,1.88,1.88,4.05.37,12.22.36,16.27,0,1.21-.11,1.72-.34,1.87-1.63-.38-5.32.48-11.27,0-16.52-.06-.65-.11-1.15-.62-1.63l-18.21-.18ZM119.18,126.3c-.84.21-1.09.76-1.18,1.57-.61,5.17.47,11.47,0,16.77.07.84.82,1.52,1.62,1.62,5.12.68,11.74-.55,17.03,0,1.15-.13,1.53-1.09,1.62-2.13.37-3.96.36-12.06,0-16.02-.13-1.44-.46-1.75-1.88-1.88-5.44-.5-11.68.35-17.21.07ZM149.81,126.57c-.37.58-.52,1.11-.58,1.8-.46,5.17.38,11.02,0,16.27.15,1.29.66,1.52,1.87,1.63,4.11.37,12.42.38,16.52,0,1.42-.13,1.74-.43,1.88-1.88.37-4.04.37-12.24,0-16.27-.06-.65-.11-1.15-.62-1.63l-19.08.08ZM200.69,145.93c.25-.24.53-1.17.57-1.55.41-3.68.35-12.28,0-16.02-.09-1.03-.46-1.99-1.62-2.13-5.41.4-11.45-.49-16.77,0-1.42.13-1.74.43-1.88,1.88-.37,4.03-.39,12.52,0,16.53.11,1.17.42,1.51,1.62,1.62,4.14.4,12.6.35,16.78,0,.41-.04.99-.03,1.3-.33ZM74.67,157.57c-.32-.4-1.04-.54-1.53-.59-5.22-.49-11.22.41-16.52.01-1.66.19-1.77,1.2-1.88,2.62-.3,3.89-.42,11.98,0,15.77.15,1.35.78,1.98,2.13,2.13,5.06.56,11.1-.45,16.27,0,.98.08,1.94-.86,1.88-1.88-.38-5.43.45-11.41,0-16.78-.04-.46-.02-.91-.34-1.29ZM182.18,157.05c-.55.35-1.18.84-1.19,1.56.49,5.38-.6,11.76,0,17.02.16,1.36.86,1.77,2.12,1.88,5.16.47,11.03-.38,16.27,0,1.03-.03,1.84-.84,1.88-1.88-.38-5.24.48-11.11,0-16.27-.1-1.08-.41-1.56-1.27-2.23l-17.82-.08ZM92.18,160.3c-.6.31-1.06.92-1.16,1.59-.21,1.33-.16,5.08-.03,6.5.09.96.37,1.79,1.39,2.11l71.01.02c.83-.01,1.48-.89,1.6-1.65.19-1.23.19-5.99,0-7.22-.13-.81-.55-1.25-1.37-1.37l-71.43.04ZM125.75,175h-22.38c-.29,0-1.38,1.08-1.38,1.38v32.12h23.75v-33.5ZM153.75,208.5v-32.38c0-.25-.87-1.12-1.12-1.12h-22.25l-.12,33.5h23.5Z"/>
  <path class="cls-1" d="M125.7,36.57c15.25-1.57,27.05,14.22,21.49,28.49-5.69,14.62-25.23,17.78-35.19,5.55-10.12-12.43-2.33-32.4,13.69-34.05ZM127.19,42.56c-1.16.06-2.48.87-2.68,2.08l.1,14.87c.71,1.48,2.42,1.99,3.62,2.88,1.38,1.02,1.55,2.17,3.63,2.37,2.65.26,7.32.17,6.27-3.77-.99-3.71-6.1-.24-7.6-3.15-.89-1.73.05-9.68-.35-12.4-.23-1.57-1.25-2.98-2.99-2.88Z"/>
  <path class="cls-1" d="M125.75,175v33.5h-23.75v-32.12c0-.29,1.08-1.38,1.38-1.38h22.38Z"/>
  <path class="cls-1" d="M153.75,208.5h-23.5l.12-33.5h22.25c.25,0,1.12.87,1.12,1.12v32.38Z"/>
  <path class="cls-1" d="M92.18,160.3l71.43-.04c.82.13,1.25.56,1.37,1.37.19,1.23.2,6,0,7.22-.12.77-.77,1.64-1.6,1.65l-71.01-.02c-1.02-.32-1.31-1.14-1.39-2.11-.13-1.42-.19-5.16.03-6.5.11-.66.57-1.28,1.16-1.59Z"/>
  <path class="cls-1" d="M74.67,157.57c.31.39.3.83.34,1.29.46,5.36-.37,11.34,0,16.78.07,1.02-.9,1.95-1.88,1.88-5.17-.45-11.21.55-16.27,0-1.35-.15-1.98-.78-2.13-2.13-.42-3.79-.31-11.87,0-15.77.11-1.42.22-2.43,1.88-2.62,5.3.4,11.3-.51,16.52-.01.49.05,1.21.19,1.53.59Z"/>
  <path class="cls-1" d="M182.18,157.05l17.82.08c.85.68,1.17,1.15,1.27,2.23.48,5.16-.38,11.03,0,16.27-.03,1.04-.85,1.85-1.88,1.88-5.24-.37-11.11.48-16.27,0-1.26-.12-1.96-.52-2.12-1.88-.61-5.26.48-11.64,0-17.02.01-.72.64-1.21,1.19-1.56Z"/>
  <path class="cls-1" d="M149.81,126.57l19.08-.08c.51.48.56.98.62,1.63.37,4.04.37,12.24,0,16.27-.13,1.44-.46,1.75-1.88,1.88-4.11.38-12.41.37-16.52,0-1.21-.11-1.72-.34-1.87-1.63.37-5.24-.47-11.1,0-16.27.06-.69.21-1.21.58-1.8Z"/>
  <path class="cls-1" d="M55.93,126.3l17.71-.06c.75.02,1.35.63,1.38,1.38-.43,5.46.52,11.66,0,17.03-.09.95-.33,1.49-1.38,1.62-5.46-.43-11.66.52-17.03,0-1.2-.12-1.71-.71-1.87-1.88.37-5.16-.47-10.94,0-16.02.09-.93.31-1.59,1.19-2.06Z"/>
  <path class="cls-1" d="M200.69,145.93c-.31.29-.89.29-1.3.33-4.18.36-12.64.4-16.78,0-1.2-.12-1.51-.46-1.62-1.62-.39-4.01-.36-12.5,0-16.53.13-1.44.46-1.75,1.88-1.88,5.32-.49,11.37.4,16.77,0,1.16.13,1.53,1.1,1.62,2.13.35,3.74.4,12.34,0,16.02-.04.39-.32,1.31-.57,1.55Z"/>
  <path class="cls-1" d="M119.18,126.3c5.52.28,11.77-.56,17.21-.07,1.42.13,1.74.43,1.88,1.88.36,3.96.37,12.07,0,16.02-.1,1.04-.47,2-1.62,2.13-5.29-.55-11.91.68-17.03,0-.8-.11-1.55-.78-1.62-1.62.48-5.3-.6-11.6,0-16.77.1-.81.34-1.36,1.18-1.57Z"/>
  <path class="cls-1" d="M56.18,95.3c5.44.28,11.6-.55,16.96-.07,1.42.13,1.74.43,1.88,1.88.49,5.33-.4,11.37,0,16.77-.01.92-.8,1.27-1.63,1.37-3.73.43-12.71.35-16.52,0-1.26-.12-1.96-.52-2.12-1.88.43-5.08-.55-11.03,0-16.01.11-.97.38-1.8,1.43-2.07Z"/>
  <path class="cls-1" d="M119.43,95.3c5.33.36,11.75-.66,16.95-.06,1.16.13,1.74.73,1.88,1.88.59,5.11-.46,11.29,0,16.52-.05.78-.84,1.57-1.62,1.62-5.41-.4-11.45.48-16.77,0-1.42-.13-1.74-.43-1.88-1.88-.48-5.25.39-11.2,0-16.52.01-.8.75-1.31,1.44-1.56Z"/>
  <path class="cls-1" d="M182.43,95.3c5.34.36,11.74-.66,16.95-.06,1.5.17,1.76,1.02,1.88,2.37.35,3.84.35,11.68,0,15.52-.12,1.26-.52,1.96-1.88,2.12-5.32-.38-11.28.48-16.52,0-1.42-.13-1.74-.43-1.88-1.88-.48-5.25.39-11.2,0-16.52.01-.8.75-1.31,1.44-1.56Z"/>
  <path class="cls-1" d="M150.68,95.3l16.95-.06c1.14.08,1.75.78,1.88,1.88.59,5.11-.46,11.29,0,16.52-.05.78-.84,1.57-1.62,1.62-5.38-.42-11.49.52-16.78,0-1.2-.12-1.71-.71-1.87-1.88.45-5.14-.58-11.24,0-16.26.11-.92.52-1.54,1.43-1.82Z"/>
  <path class="cls-1" d="M87.68,126.3l18.21.18c.51.48.56.98.62,1.63.48,5.24-.38,11.2,0,16.52-.15,1.29-.66,1.52-1.87,1.63-4.05.36-12.23.37-16.27,0-1.42-.13-1.74-.43-1.88-1.88-.48-5.24.38-11.2,0-16.52.03-.78.41-1.39,1.18-1.57Z"/>
  <path class="cls-1" d="M105.93,95.58c.4.32.54,1.04.59,1.53.5,5.3-.42,11.39,0,16.78-.05,1.09-.95,1.29-1.88,1.37-3.82.35-12.52.41-16.27,0-1.4-.15-1.77-.55-1.88-1.87-.35-4.12-.38-12.17,0-16.27.13-1.42.43-1.74,1.88-1.88,4.11-.37,12.15-.35,16.27,0,.46.04.91.02,1.29.34Z"/>
  <path d="M127.19,42.56c1.74-.1,2.76,1.31,2.99,2.88.4,2.73-.54,10.67.35,12.4,1.5,2.91,6.61-.56,7.6,3.15,1.05,3.94-3.63,4.03-6.27,3.77-2.07-.2-2.25-1.35-3.63-2.37-1.2-.89-2.92-1.39-3.62-2.88l-.1-14.87c.19-1.21,1.51-2.02,2.68-2.08Z"/>
</svg>
