<?xml version="1.0" encoding="UTF-8"?>
<svg id="_レイヤー_1" data-name="レイヤー 1" xmlns="http://www.w3.org/2000/svg" viewBox="0 0 204.06 152">
  <defs>
    <style>
      .cls-1 {
        fill: #fff;
      }
    </style>
  </defs>
  <path d="M152.51,85.52c-.39,19.49-3.34,40.11-13.21,57.17-.94,1.63-3.46,6.01-4.87,6.88-3.02,1.86-6.79-.34-6.41-3.9.17-1.58,4.13-6.9,5.18-8.83,6.96-12.74,10.6-30.97,11.06-45.44.05-1.43.22-4.52,0-5.76-.05-.28-.09-.51-.41-.59l-6.83-.52c-1.19,17.51-6.88,36.03-18.38,49.49-1.27,1.49-4.65,5.27-6.33,5.92-2.49.97-5.31-.41-5.74-3.11-.52-3.26,2.88-4.98,4.82-7.06,11.41-12.2,16.46-30.35,17.34-46.73-12.23-2.05-22.05-7.49-21.22-21.4,1.38-23.19,22.45-40.41,44.86-41.64,24.96-1.36,49.18,15.9,50.65,41.87.76,13.47-9.11,19.05-20.87,21.36-.48.33.48,7.7.65,8.86,1.95,13.65,7.15,27.3,16.33,37.67,1.09,1.23,4.41,3.91,4.76,5.24.88,3.34-1.67,6.23-5.09,5.34-3.22-.85-10.23-10.57-12.15-13.6-7.83-12.38-12.09-27.36-12.9-41.98l-7.24.76c-.15,8.05.67,16.12,2.07,24.03,1.78,10.14,5.04,20.41,10.13,29.37,1,1.77,3.91,5.53,4.03,7.24.26,3.74-4.24,5.78-6.98,3.21-1.05-.98-3.21-4.77-4.04-6.21-5.44-9.38-8.87-20-10.84-30.66-1.65-8.92-2.31-17.96-2.62-27.01h-5.75Z"/>
  <path d="M55.26,52.02h23.12c1.88,0,4.47,3.44,4.15,5.38l-8.8,86.72c-.39,3.86-2.8,6.98-6.66,7.84l-50.92.04c-5.7-1.32-6.49-5.01-7.14-10.11C5.41,113.82,3.59,85.47,0,57.39c.12-2.76,1.84-4.97,4.63-5.37l41.88-.12L65.51,1.65c3.08-3.69,8.36-.65,7.14,3.89l-17.39,46.48ZM74.26,60.02H8.51l2.25,27.5c5.3-1.29,10.87-2.55,16.37-2.25,7.96.44,15.27,3.93,23.08,5.17,7.19,1.15,15.04.91,21.42-2.94l2.64-27.49Z"/>
  <path class="cls-1" d="M74.26,60.02l-2.64,27.49c-6.37,3.85-14.22,4.08-21.42,2.94-7.8-1.24-15.11-4.74-23.08-5.17-5.51-.3-11.07.96-16.37,2.25l-2.25-27.5h65.75Z"/>
</svg>