<?xml version="1.0" encoding="UTF-8"?>
<svg id="_レイヤー_1" data-name="レイヤー 1" xmlns="http://www.w3.org/2000/svg" viewBox="0 0 256 256">
  <defs>
    <style>
      .cls-1 {
        fill: none;
      }
    </style>
  </defs>
  <path class="cls-1" d="M256,0v256H0V0h256ZM79.45,38.07c-17.44,1.44-27.34,19.06-23.01,35.37,6.44,24.24,41.25,26.37,50.69,3.06,7.86-19.42-6.56-40.16-27.67-38.42ZM150.75,85c.72-.01,1.38.32,2.01.61,11.56,5.36,22.35,12.69,33.92,18.08,3.66,1.17,7.06-.59,7.33-4.56-.27-17.78.49-35.68-.39-53.38-1.02-2.6-3.32-4.19-6.19-3.69l-36.76,19.99c-7.37,2.09-17.64-2.87-23.03,4.22-4.89,6.44-2.23,16.65,5.36,19.6.68.26,3.03.68,3.27,1.04l2.85,12.96c.05,1.39-1.26,1.92-1.97,2.89-2.85,3.9-5.57,10.75-7.69,15.31-.39.84-.71,1.77-.97,2.66-.43.3-2.11-.97-2.57-1.29-9.82-6.6-21.07-18.44-33.28-19.22-6.87-.44-17.17-.46-24.02,0-11.17.75-21.75,8.62-25.74,19.01-2.35,6.11-2.07,11.51-2.37,17.88-1.17,24.77-1.04,49.64-1.02,74.5.31,3.65,2.66,6.48,6.37,6.88,16.63-.95,34.28,1.4,50.77.25,4.9-.34,7.31-3.37,7.61-8.14l6.62-66.63.63-.12c3.83,2.31,7.55,5.12,11.42,7.33,9.04,5.15,16.14,3.43,21.37-5.53,5.99-10.26,10.21-22.57,15.9-33.1,2.81-6.87-.75-13.93-7.21-16.98l-2.23-10.58ZM218.44,45.05c-1.05.15-4.2,2.23-5.36,2.9-3.24,1.88-6.38,3.98-9.59,5.91-2.54,2.6.33,6.49,3.65,5.15l13.99-8.51c2.07-2.24.43-5.9-2.69-5.45ZM204.93,69.06c-3.19,1-3.19,5.14,0,6.14,5.06-.44,11.81.79,16.68.04,3.28-.51,3.22-5.28.21-6.18h-16.89ZM204.93,85.81c-2.27.46-3.19,3.54-1.56,5.2l14.19,8.81c3.6,1.42,6.11-2.85,3.3-5.3-1.7-1.49-11.52-7.46-13.65-8.35-.83-.35-1.35-.54-2.29-.35Z"/>
  <path d="M150.75,85l2.23,10.58c6.46,3.05,10.02,10.11,7.21,16.98-5.69,10.53-9.91,22.84-15.9,33.1-5.23,8.96-12.33,10.68-21.37,5.53-3.87-2.21-7.59-5.02-11.42-7.33l-.63.12-6.62,66.63c-.31,4.77-2.71,7.8-7.61,8.14-16.49,1.15-34.15-1.2-50.77-.25-3.72-.4-6.06-3.23-6.37-6.88-.03-24.86-.15-49.73,1.02-74.5.3-6.37.02-11.77,2.37-17.88,3.99-10.39,14.57-18.26,25.74-19.01,6.86-.46,17.15-.44,24.02,0,12.22.78,23.46,12.62,33.28,19.22.46.31,2.15,1.59,2.57,1.29.26-.89.58-1.82.97-2.66,2.12-4.56,4.84-11.41,7.69-15.31.71-.98,2.03-1.5,1.97-2.89l-2.85-12.96c-.23-.36-2.59-.78-3.27-1.04-7.59-2.95-10.25-13.16-5.36-19.6,5.39-7.09,15.66-2.14,23.03-4.22l36.76-19.99c2.87-.5,5.16,1.09,6.19,3.69.88,17.7.12,35.61.39,53.38-.26,3.97-3.67,5.73-7.33,4.56-11.57-5.39-22.36-12.72-33.92-18.08-.63-.29-1.29-.63-2.01-.61Z"/>
  <path d="M79.45,38.07c21.11-1.74,35.53,19,27.67,38.42-9.44,23.32-44.25,21.18-50.69-3.06-4.33-16.3,5.57-33.93,23.01-35.37Z"/>
  <path d="M218.44,45.05c3.11-.46,4.76,3.21,2.69,5.45l-13.99,8.51c-3.32,1.35-6.19-2.55-3.65-5.15,3.21-1.93,6.35-4.03,9.59-5.91,1.16-.67,4.31-2.75,5.36-2.9Z"/>
  <path d="M204.93,85.81c.94-.19,1.46,0,2.29.35,2.13.89,11.95,6.87,13.65,8.35,2.8,2.45.3,6.73-3.3,5.3l-14.19-8.81c-1.63-1.66-.71-4.73,1.56-5.2Z"/>
  <path d="M204.93,69.06h16.89c3.01.9,3.07,5.67-.21,6.18-4.86.75-11.61-.48-16.68-.04-3.19-1-3.19-5.14,0-6.14Z"/>
</svg>
